More info www. MoviesP2P .com




[img]http://img38.imageshack.us/img38/332/jld2012brravisnapshot01.png[/img]



[img]http://img405.imageshack.us/img405/332/jld2012brravisnapshot01.png[/img]



[img]http://img215.imageshack.us/img215/2603/jld2012brravisnapshot00.png[/img]



[img]http://img38.imageshack.us/img38/2603/jld2012brravisnapshot00.png[/img]



[img]http://img834.imageshack.us/img834/2603/jld2012brravisnapshot00.png[/img]



Complete name                            : C:\Users\root\Desktop\Justice.League.Doom.2012.BRRip.Ac3.Xvid.ANALOG\J.L.D.2012.BRR.avi

Format                                   : AVI

Format/Info                              : Audio Video Interleave

File size                                : 1.38 GiB

Duration                                 : 1h 16mn

Overall bit rate                         : 2 578 Kbps

Movie name                               : J.L.D.2012.BRR

Writing application                      : VirtualDub build 32842/release

Copyright                                : ANALOG



Video

ID                                       : 0

Format                                   : MPEG-4 Visual

Format profile                           : Advanced Simple@L5

Format settings, BVOP                    : 1

Format settings, QPel                    : No

Format settings, GMC                     : No warppoints

Format settings, Matrix                  : Default (H.263)

Muxing mode                              : Packed bitstream

Codec ID                                 : XVID

Codec ID/Hint                            : XviD

Duration                                 : 1h 16mn

Bit rate                                 : 2 121 Kbps

Width                                    : 720 pixels

Height                                   : 400 pixels

Display aspect ratio                     : 16:9

Frame rate                               : 23.976 fps

Color space                              : YUV

Chroma subsampling                       : 4:2:0

Bit depth                                : 8 bits

Scan type                                : Progressive

Compression mode                         : Lossy

Bits/(Pixel*Frame)                       : 0.307

Stream size                              : 1.14 GiB (82%)

Writing library                          : XviD 64



Audio

ID                                       : 1

Format                                   : AC-3

Format/Info                              : Audio Coding 3

Mode extension                           : CM (complete main)

Codec ID                                 : 2000

Duration                                 : 1h 16mn

Bit rate mode                            : Constant

Bit rate                                 : 448 Kbps

Channel(s)                               : 6 channels

Channel positions                        : Front: L C R, Side: L R, LFE

Sampling rate                            : 48.0 KHz

Bit depth                                : 16 bits

Compression mode                         : Lossy

Stream size                              : 246 MiB (17%)

Alignment                                : Aligned on interleaves

Interleave, duration                     : 42 ms (1.00 video frame)

Interleave, preload duration             : 512 ms

Language                                 : English

Sample                                   : Yes

Source                                   : Justice.League.Doom.2012.720p.BluRay.x264.DTS-HDC  thanx :)

As humans, we perceive the world in analog. Everything we see and hear is a continuous transmission of information to our senses.

analog.p.2.p@hushmail.com

GREATINGS TO ALL THE P2P PLACES I LURK AT!!

